<svg xmlns="http://www.w3.org/2000/svg" xmlns:xlink="http://www.w3.org/1999/xlink" aria-hidden="true" role="img" class="iconify iconify--logos" width="31.88" height="32" preserveAspectRatio="xMidYMid meet" viewBox="0 0 256 257"><defs><linearGradient id="VikingIconSvg__a" x1="-.148%" x2="50.4%" y1="7.721%" y2="28.691%"><stop offset="0%" stop-color="#D6D6D6"></stop><stop offset="3.846%" stop-color="#E5E5E5"></stop><stop offset="6.718%" stop-color="#E7E7E7"></stop><stop offset="9.049%" stop-color="#D9D9D9"></stop><stop offset="12.04%" stop-color="#B0B0B0"></stop><stop offset="14.81%" stop-color="#808080"></stop><stop offset="17.36%" stop-color="#555"></stop><stop offset="19.63%" stop-color="#333"></stop><stop offset="21.54%" stop-color="#1F1F1F"></stop><stop offset="23.21%" stop-color="#141414"></stop><stop offset="24.6%" stop-color="#0F0F0F"></stop><stop offset="25.72%" stop-color="#0B0B0B"></stop><stop offset="26.6%" stop-color="#090909"></stop><stop offset="27.34%" stop-color="#080808"></stop><stop offset="28.03%" stop-color="#070707"></stop><stop offset="100%" stop-color="#050505"></stop></linearGradient><linearGradient id="VikingIconSvg__b" x1="50%" x2="50%" y1="99.416%" y2="-.603%"><stop offset="0%" stop-color="#FFF"></stop><stop offset="54.428%" stop-color="#FFF" stop-opacity="0"></stop></linearGradient></defs><path fill="url(#VikingIconSvg__a)" d="M255.247 127.282c0 70.541-40.714 132.282-101.548 163.618V83.664L255.247 127.282Z" opacity=".5"></path><path fill="url(#VikingIconSvg__a)" d="M101.548 290.9c-14.905-7.48-28.708-16.843-41.029-27.727l41.029-35.08v62.807Z"></path><path fill="url(#VikingIconSvg__a)" d="M35.32 220.517c-17.45-24.782-27.762-55.122-27.762-87.918s10.312-63.136 27.762-87.918L101.55 83.664v137.19L35.32 220.517Z"></path><path fill="url(#VikingIconSvg__a)" d="M101.548 83.664V20.09C162.383-11.246 223.196 50.495 223.196 121.037c0 70.542-60.813 132.283-121.648 100.943v-62.807l41.03-35.133-41.03-35.092Z"></path><path fill="url(#VikingIconSvg__b)" d="M101.548 83.664V20.09C162.383-11.246 223.196 50.495 223.196 121.037c0 70.542-60.813 132.283-121.648 100.943v-62.807l41.03-35.133-41.03-35.092Z"></path><path fill="#00CAFF" d="M101.548 83.664V20.09C162.383-11.246 223.196 50.495 223.196 121.037c0 70.542-60.813 132.283-121.648 100.943v-62.807l41.03-35.133-41.03-35.092Z"></path><path fill="#00B9FE" d="M223.196 121.037c0 70.542-60.813 132.283-121.648 100.943v-62.807l41.03-35.133-41.03-35.092V20.09C162.383-11.246 223.196 50.495 223.196 121.037Z"></path><path fill="#00B9FE" d="M182.166 121.037c0 48.195-41.583 92.257-82.618 68.573v-68.573h82.618Z"></path><path fill="#00CAFF" d="M182.166 121.037c0 48.195-41.583 92.257-82.618 68.573v-68.573h82.618Z"></path><path fill="#00689E" d="M101.548 121.037h82.618v68.573c-12.593 6.327-26.388 9.624-41.029 9.624-14.642 0-28.436-3.297-41.03-9.624v-68.573Z"></path><path fill="#005178" d="M182.166 121.037v68.573c-12.593 6.327-26.388 9.624-41.029 9.624v-78.197h41.029Z"></path></svg>
