<svg xmlns="http://www.w3.org/2000/svg" viewBox="0 0 1600 900" preserveAspectRatio="xMidYMid slice">
  <defs>
    <linearGradient id="hsky" x1="0" y1="0" x2="0" y2="1">
      <stop offset="0" stop-color="#f4d8b0"></stop>
      <stop offset="0.55" stop-color="#e89978"></stop>
      <stop offset="1" stop-color="#7d5a78"></stop>
    </linearGradient>
    <radialGradient id="hsun" cx="0.72" cy="0.55" r="0.18">
      <stop offset="0" stop-color="#fff3d6"></stop>
      <stop offset="1" stop-color="#fff3d6" stop-opacity="0"></stop>
    </radialGradient>
  </defs>
  <rect width="1600" height="900" fill="url(#hsky)"></rect>
  <circle cx="1150" cy="500" r="80" fill="#fff1c8"></circle>
  <rect x="0" y="500" width="1600" height="400" fill="url(#hsun)" opacity="0.7"></rect>
  <g fill="#3a2840" opacity="0.95">
    <path d="M0 720 L160 640 L300 700 L440 600 L600 680 L760 590 L900 660 L1040 580 L1200 650 L1340 590 L1480 640 L1600 600 L1600 900 L0 900 Z"></path>
  </g>
  <g fill="#1f1428">
    <path d="M0 800 L120 760 L260 790 L400 740 L560 780 L720 720 L880 770 L1040 730 L1200 760 L1340 720 L1480 760 L1600 740 L1600 900 L0 900 Z"></path>
  </g>
  <g stroke="#fff3d6" stroke-width="1.5" opacity="0.4">
    <line x1="200" y1="200" x2="240" y2="200"></line>
    <line x1="380" y1="120" x2="430" y2="120"></line>
    <line x1="540" y1="220" x2="580" y2="220"></line>
    <line x1="900" y1="160" x2="940" y2="160"></line>
  </g>
</svg>