<svg xmlns="http://www.w3.org/2000/svg" viewBox="0 0 1600 900" preserveAspectRatio="xMidYMid slice">
  <defs>
    <linearGradient id="sbg" x1="0" y1="0" x2="1" y2="1">
      <stop offset="0" stop-color="#1a2540"></stop>
      <stop offset="1" stop-color="#0e1424"></stop>
    </linearGradient>
  </defs>
  <rect width="1600" height="900" fill="url(#sbg)"></rect>
  <g stroke="#3b5998" stroke-width="1" fill="none" opacity="0.4">
    <circle cx="800" cy="450" r="120"></circle>
    <circle cx="800" cy="450" r="200"></circle>
    <circle cx="800" cy="450" r="280"></circle>
    <circle cx="800" cy="450" r="380"></circle>
  </g>
  <g stroke="#7da3ff" stroke-width="2" fill="none" stroke-linecap="round">
    <path d="M120 450 Q200 420 240 450 T360 450 Q420 380 460 450 T580 450 Q620 480 660 450 T780 450 L800 350 L820 450 T940 450 Q980 380 1020 450 T1140 450 Q1180 480 1220 450 T1340 450 Q1400 420 1480 450"></path>
  </g>
  <g fill="#7da3ff">
    <circle cx="800" cy="450" r="6"></circle>
    <circle cx="800" cy="450" r="14" fill="none" stroke="#7da3ff" stroke-width="1.5" opacity="0.6"></circle>
  </g>
  <g fill="#e6ecff" font-family="ui-sans-serif, system-ui, sans-serif">
    <text x="120" y="160" font-size="14" letter-spacing="6" opacity="0.6">TRANSMISSION</text>
    <text x="120" y="220" font-size="56" font-weight="600">Quiet signals</text>
    <text x="120" y="270" font-size="56" font-weight="300" font-style="italic">in noisy rooms</text>
  </g>
  <g fill="#7da3ff" font-family="ui-monospace, monospace" font-size="11" letter-spacing="2" opacity="0.6">
    <text x="120" y="780">FREQ 432.7 Hz</text>
    <text x="120" y="800">AMP -3.2 dB</text>
    <text x="1380" y="780">LAT 37.7749° N</text>
    <text x="1380" y="800">LON 122.4194° W</text>
  </g>
</svg>